<svg width="24" height="25" viewBox="0 0 24 25" fill="none" xmlns="http://www.w3.org/2000/svg">
<path fill-rule="evenodd" clip-rule="evenodd" d="M12.1667 3.33333C10.2217 3.33333 8.35648 4.10595 6.98122 5.48122C5.60595 6.85648 4.83333 8.72175 4.83333 10.6667C4.83333 13.5066 6.68109 16.2622 8.70712 18.4008C9.70139 19.4503 10.6988 20.3095 11.4486 20.9066C11.7277 21.1288 11.9714 21.3139 12.1667 21.4582C12.3619 21.3139 12.6056 21.1288 12.8847 20.9066C13.6346 20.3095 14.6319 19.4503 15.6262 18.4008C17.6522 16.2622 19.5 13.5066 19.5 10.6667C19.5 8.72175 18.7274 6.85648 17.3521 5.48122C15.9768 4.10595 14.1116 3.33333 12.1667 3.33333ZM12.1667 22.5833C11.6582 23.346 11.658 23.3459 11.6577 23.3457L11.6551 23.344L11.649 23.3399L11.628 23.3257C11.6101 23.3135 11.5847 23.2961 11.5521 23.2736C11.487 23.2285 11.3934 23.1628 11.2755 23.0776C11.0397 22.9073 10.7058 22.6587 10.3066 22.3408C9.50955 21.7061 8.44444 20.7893 7.37621 19.6617C5.27724 17.4461 3 14.2434 3 10.6667C3 8.23552 3.96577 5.90394 5.68485 4.18485C7.40394 2.46577 9.73552 1.5 12.1667 1.5C14.5978 1.5 16.9294 2.46577 18.6485 4.18485C20.3676 5.90394 21.3333 8.23552 21.3333 10.6667C21.3333 14.2434 19.0561 17.4461 16.9571 19.6617C15.8889 20.7893 14.8238 21.7061 14.0267 22.3408C13.6275 22.6587 13.2937 22.9073 13.0579 23.0776C12.9399 23.1628 12.8463 23.2285 12.7812 23.2736C12.7487 23.2961 12.7232 23.3135 12.7054 23.3257L12.6844 23.3399L12.6783 23.344L12.6763 23.3453C12.6761 23.3454 12.6751 23.346 12.1667 22.5833ZM12.1667 22.5833L12.6751 23.346C12.3672 23.5513 11.9656 23.551 11.6577 23.3457L12.1667 22.5833Z" fill="black"/>
<path fill-rule="evenodd" clip-rule="evenodd" d="M12.1667 8.83333C11.1541 8.83333 10.3333 9.65414 10.3333 10.6667C10.3333 11.6792 11.1541 12.5 12.1667 12.5C13.1792 12.5 14 11.6792 14 10.6667C14 9.65414 13.1792 8.83333 12.1667 8.83333ZM8.5 10.6667C8.5 8.64162 10.1416 7 12.1667 7C14.1917 7 15.8333 8.64162 15.8333 10.6667C15.8333 12.6917 14.1917 14.3333 12.1667 14.3333C10.1416 14.3333 8.5 12.6917 8.5 10.6667Z" fill="black"/>
</svg>
