<svg width="38" height="38" viewBox="0 0 38 38" fill="none" xmlns="http://www.w3.org/2000/svg">
<path d="M29.9737 8.93246C27.9553 8.00637 25.791 7.32406 23.528 6.93328C23.4868 6.92574 23.4457 6.94459 23.4244 6.98228C23.1461 7.47736 22.8377 8.12322 22.6218 8.63087C20.1879 8.26648 17.7664 8.26648 15.3823 8.63087C15.1664 8.11194 14.8469 7.47736 14.5673 6.98228C14.546 6.94584 14.5049 6.927 14.4637 6.93328C12.2019 7.32282 10.0376 8.00512 8.01802 8.93246C8.00053 8.94 7.98555 8.95258 7.9756 8.9689C3.87028 15.1022 2.74567 21.0847 3.29737 26.993C3.29986 27.0219 3.31609 27.0495 3.33856 27.0671C6.04713 29.0562 8.67084 30.2638 11.2458 31.0642C11.287 31.0768 11.3307 31.0617 11.3569 31.0278C11.966 30.196 12.509 29.3189 12.9746 28.3965C13.002 28.3425 12.9758 28.2784 12.9197 28.2571C12.0584 27.9304 11.2383 27.532 10.4495 27.0797C10.3871 27.0433 10.3821 26.954 10.4395 26.9113C10.6055 26.7869 10.7715 26.6575 10.9301 26.5268C10.9587 26.5029 10.9987 26.4979 11.0324 26.513C16.2149 28.8791 21.8255 28.8791 26.9468 26.513C26.9805 26.4966 27.0205 26.5017 27.0504 26.5255C27.209 26.6562 27.375 26.7869 27.5422 26.9113C27.5996 26.954 27.5959 27.0433 27.5335 27.0797C26.7446 27.5408 25.9245 27.9304 25.062 28.2558C25.0059 28.2772 24.9809 28.3425 25.0084 28.3965C25.4839 29.3176 26.0269 30.1947 26.6248 31.0265C26.6497 31.0617 26.6947 31.0768 26.7359 31.0642C29.3233 30.2638 31.947 29.0562 34.6556 27.0671C34.6793 27.0495 34.6943 27.0231 34.6968 26.9942C35.3571 20.1636 33.5909 14.2301 30.0148 8.97015C30.0061 8.95258 29.9912 8.94 29.9737 8.93246ZM13.7485 23.3954C12.1882 23.3954 10.9026 21.963 10.9026 20.2038C10.9026 18.4446 12.1633 17.0121 13.7485 17.0121C15.3461 17.0121 16.6193 18.4572 16.5943 20.2038C16.5943 21.963 15.3336 23.3954 13.7485 23.3954ZM24.2707 23.3954C22.7105 23.3954 21.4248 21.963 21.4248 20.2038C21.4248 18.4446 22.6855 17.0121 24.2707 17.0121C25.8684 17.0121 27.1415 18.4572 27.1166 20.2038C27.1166 21.963 25.8684 23.3954 24.2707 23.3954Z" fill="white"/>
</svg>
