<svg width="38" height="38" viewBox="0 0 38 38" fill="none" xmlns="http://www.w3.org/2000/svg">
<path d="M18.9911 3.16699C15.8595 3.16699 12.7983 4.0956 10.1945 5.83539C7.59075 7.57518 5.56135 10.048 4.36296 12.9412C3.16458 15.8343 2.85102 19.0179 3.46196 22.0893C4.07289 25.1606 5.58087 27.9819 7.7952 30.1962C10.0095 32.4105 12.8308 33.9185 15.9021 34.5294C18.9735 35.1404 22.157 34.8268 25.0502 33.6284C27.9434 32.43 30.4162 30.4006 32.156 27.7969C33.8958 25.1931 34.8244 22.1319 34.8244 19.0003C34.8246 16.921 34.4151 14.862 33.6195 12.941C32.8239 11.0199 31.6576 9.27438 30.1873 7.80408C28.717 6.33379 26.9715 5.16752 25.0504 4.37188C23.1293 3.57624 21.0704 3.16682 18.9911 3.16699Z" fill="white"/>
<path d="M18.9911 3.16699C15.8595 3.16699 12.7983 4.0956 10.1945 5.83539C7.59075 7.57518 5.56135 10.048 4.36296 12.9412C3.16458 15.8343 2.85102 19.0179 3.46196 22.0893C4.07289 25.1606 5.58087 27.9819 7.7952 30.1962C10.0095 32.4105 12.8308 33.9185 15.9021 34.5294C18.9735 35.1404 22.157 34.8268 25.0502 33.6284C27.9434 32.43 30.4162 30.4006 32.156 27.7969C33.8958 25.1931 34.8244 22.1319 34.8244 19.0003C34.8246 16.921 34.4151 14.862 33.6195 12.941C32.8239 11.0199 31.6576 9.27438 30.1873 7.80408C28.717 6.33379 26.9715 5.16752 25.0504 4.37188C23.1293 3.57624 21.0704 3.16682 18.9911 3.16699ZM24.0253 27.1584C23.966 27.3062 23.8758 27.4396 23.7608 27.5496C23.6458 27.6597 23.5085 27.7439 23.3583 27.7966C23.2081 27.8493 23.0483 27.8693 22.8897 27.8552C22.7311 27.8411 22.5774 27.7933 22.4388 27.7149L18.1406 24.3751L15.3819 26.9202C15.3179 26.9675 15.243 26.9979 15.1641 27.0087C15.0853 27.0194 15.005 27.0102 14.9306 26.9818L15.4595 22.2501L15.4764 22.2635L15.4872 22.1701C15.4872 22.1701 23.2218 15.1282 23.5369 14.8282C23.8559 14.5289 23.7506 14.464 23.7506 14.464C23.7688 14.099 23.1782 14.464 23.1782 14.464L12.9301 21.0571L8.6622 19.6036C8.6622 19.6036 8.0067 19.3685 7.94495 18.8515C7.88003 18.3385 8.68356 18.0598 8.68356 18.0598L25.6521 11.3188C25.6521 11.3188 27.0471 10.6973 27.0471 11.7265L24.0253 27.1584Z" fill="#03819D"/>
</svg>
