<svg width="38" height="38" viewBox="0 0 38 38" fill="none" xmlns="http://www.w3.org/2000/svg">
<path d="M23.8653 3.16699H14.1509C5.27758 3.16699 3.1665 5.27807 3.1665 14.1348V23.8493C3.1665 32.7225 5.26116 34.8337 14.1344 34.8337H23.8488C32.7221 34.8337 34.8332 32.739 34.8332 23.8657V14.1514C34.8332 5.27807 32.7385 3.16699 23.8653 3.16699Z" fill="white"/>
<path d="M23.8653 3.16699H14.1509C5.27758 3.16699 3.1665 5.27807 3.1665 14.1348V23.8493C3.1665 32.7225 5.26116 34.8337 14.1343 34.8337H23.8488C32.7221 34.8337 34.8332 32.739 34.8332 23.8657V14.1514C34.8332 5.27807 32.7385 3.16699 23.8653 3.16699ZM28.7307 25.7624H26.4217C25.5476 25.7624 25.2837 25.0532 23.7169 23.4864C22.3479 22.167 21.7707 22.002 21.4243 22.002C20.9461 22.002 20.814 22.1339 20.814 22.7937V24.8718C20.814 25.4326 20.6326 25.7624 19.1648 25.7624C17.7404 25.6667 16.3591 25.234 15.1347 24.5C13.9103 23.7659 12.8778 22.7515 12.1222 21.5402C10.3285 19.3076 9.08042 16.6872 8.4773 13.8874C8.4773 13.5411 8.60921 13.2277 9.26897 13.2277H11.578C12.1717 13.2277 12.3862 13.4916 12.617 14.1019C13.7385 17.4005 15.6518 20.2703 16.4269 20.2703C16.7238 20.2703 16.8557 20.1383 16.8557 19.3962V15.9985C16.7567 14.4482 15.9321 14.3162 15.9321 13.7555C15.943 13.6076 16.0111 13.4697 16.1219 13.3712C16.2328 13.2726 16.3777 13.2212 16.5259 13.2277H20.1544C20.6492 13.2277 20.814 13.4751 20.814 14.0688V18.654C20.814 19.1488 21.0285 19.3136 21.1769 19.3136C21.4738 19.3136 21.7047 19.1488 22.2489 18.6045C23.4185 17.1782 24.3742 15.5892 25.0858 13.8874C25.1584 13.6827 25.2961 13.5073 25.4778 13.3882C25.6594 13.2691 25.8751 13.2127 26.0919 13.2277H28.4009C29.0936 13.2277 29.242 13.5741 29.0936 14.0688C28.2534 15.9503 27.2139 17.7363 25.9929 19.3962C25.7455 19.7755 25.6466 19.9734 25.9929 20.4187C26.2238 20.765 27.032 21.4412 27.5763 22.0845C28.3679 22.8741 29.0253 23.7878 29.5224 24.7894C29.7203 25.4326 29.3905 25.7624 28.7307 25.7624Z" fill="#1B6DA8"/>
</svg>
