<svg width="38" height="38" viewBox="0 0 38 38" fill="none" xmlns="http://www.w3.org/2000/svg">
<path d="M34.8259 15.7292C34.897 13.6781 34.4467 11.6423 33.5169 9.81096C32.8859 9.05949 32.0104 8.55237 31.0427 8.37796C27.0401 8.01617 23.021 7.86788 19.0025 7.93373C14.9987 7.86489 10.9941 8.00839 7.00556 8.36363C6.21701 8.50653 5.48726 8.87498 4.90537 9.42405C3.61073 10.6134 3.46688 12.6483 3.32303 14.3679C3.11433 17.4597 3.11433 20.5619 3.32303 23.6537C3.36465 24.6215 3.50931 25.5822 3.75458 26.5197C3.92803 27.2434 4.27894 27.913 4.7759 28.4685C5.36175 29.0467 6.1085 29.4361 6.91925 29.5863C10.0205 29.9676 13.1453 30.1257 16.2694 30.0592C21.3041 30.1308 25.7203 30.0592 30.942 29.6579C31.7726 29.517 32.5404 29.1271 33.1428 28.5402C33.5456 28.1388 33.8464 27.6476 34.0203 27.1072C34.5348 25.5346 34.7874 23.8888 34.7683 22.235C34.8259 21.4325 34.8259 16.589 34.8259 15.7292ZM15.7516 23.0948V14.2246L24.2674 18.6812C21.8795 19.9995 18.7292 21.4899 15.7516 23.0948Z" fill="#FF3A3A"/>
</svg>
